<svg width="32" height="32" viewBox="0 0 32 32" fill="none" xmlns="http://www.w3.org/2000/svg">
<path d="M15.268 23.1941C15.0196 23.1191 14.7571 23.2597 14.6868 23.5081C14.0634 25.5986 12.0995 27.061 9.91524 27.061C7.16855 27.0563 4.93744 24.8252 4.93744 22.0832C4.93744 18.4038 6.23111 14.8181 8.58408 11.987L9.37621 11.0355C9.50746 10.8761 9.70432 10.7824 9.91056 10.7824C10.1168 10.7824 10.3137 10.8761 10.4449 11.0355L11.237 11.987C13.0322 14.1478 14.2228 16.7539 14.6774 19.524C14.7196 19.7771 14.9587 19.9505 15.2165 19.9083C15.4696 19.8662 15.643 19.6271 15.6008 19.3693C15.118 16.4351 13.8572 13.6744 11.9589 11.387L11.1714 10.4308C10.8621 10.0559 10.4027 9.84025 9.91524 9.84025C9.42777 9.84025 8.96843 10.0559 8.65907 10.4308L7.86694 11.3823C5.37335 14.3821 4 18.1835 4 22.0832C4 25.3455 6.65295 27.9984 9.91524 27.9984C11.2136 27.9984 12.4463 27.586 13.4822 26.8032C14.4806 26.0486 15.2305 24.9705 15.5868 23.78C15.6571 23.5269 15.5164 23.2644 15.268 23.1941Z" fill="black"/>
<path d="M9.69026 15.8539C9.46059 15.9758 9.37622 16.2617 9.49808 16.4867C10.2715 17.9257 10.7449 19.5474 10.8714 21.1739C10.8902 21.4176 11.0964 21.6051 11.3402 21.6051C11.3542 21.6051 11.3636 21.6051 11.3776 21.6051C11.6354 21.5864 11.8276 21.3614 11.8089 21.1036C11.6729 19.3224 11.1714 17.621 10.3277 16.0461C10.2059 15.8164 9.91993 15.7321 9.69026 15.8539Z" fill="black"/>
<path d="M9.91524 24.0143C10.173 24.0143 10.384 23.8034 10.384 23.5456C10.384 23.2878 10.173 23.0769 9.91524 23.0769C9.36684 23.0769 8.91687 22.6316 8.91687 22.0785C8.91687 21.4926 8.95906 20.902 9.04811 20.3255C9.08561 20.0677 8.91218 19.8287 8.65439 19.7912C8.39659 19.7537 8.15754 19.9271 8.12005 20.1849C8.0263 20.8083 7.97943 21.4457 7.97943 22.0785C7.97943 23.1472 8.84656 24.0143 9.91524 24.0143Z" fill="black"/>
<path d="M9.91525 26.0064C12.0807 26.0064 13.8384 24.244 13.8384 22.0832C13.8384 21.8254 13.6275 21.6145 13.3697 21.6145C13.1119 21.6145 12.901 21.8254 12.901 22.0832C12.901 23.7284 11.5605 25.069 9.91525 25.069C9.65745 25.069 9.44653 25.2799 9.44653 25.5377C9.44653 25.7955 9.65745 26.0064 9.91525 26.0064Z" fill="black"/>
<path d="M12.9713 19.2053C13.0088 19.2053 13.0463 19.2006 13.0838 19.1912C13.3369 19.1303 13.4916 18.8772 13.4306 18.6241C13.1072 17.2835 12.5963 15.9945 11.9167 14.7946C11.7901 14.5696 11.5042 14.4899 11.2792 14.6165C11.0542 14.7431 10.9746 15.029 11.1011 15.254C11.7386 16.3789 12.2167 17.5835 12.5213 18.8397C12.5682 19.06 12.7604 19.2053 12.9713 19.2053Z" fill="black"/>
<path d="M8.11067 15.404C7.87631 15.2915 7.59977 15.3852 7.48259 15.6196C6.50765 17.6257 5.99206 19.8568 5.99206 22.0785C5.99206 22.3363 6.20298 22.5472 6.46078 22.5472C6.71857 22.5472 6.9295 22.3363 6.9295 22.0785C6.9295 19.9974 7.41228 17.9069 8.32628 16.032C8.43877 15.7977 8.34034 15.5211 8.11067 15.404Z" fill="black"/>
<path d="M27.9938 17.2601L27.8813 16.0273C27.525 12.1463 25.8095 8.49033 23.0535 5.72958C20.7474 3.42347 16.9976 3.42347 14.6915 5.72958C12.3854 8.03568 12.3854 11.7854 14.6915 14.0915C17.4476 16.8476 21.1036 18.5631 24.9893 18.924L26.222 19.0365C26.2736 19.0412 26.3251 19.0412 26.372 19.0412C26.8032 19.0412 27.2157 18.8725 27.525 18.5631C27.8625 18.221 28.0359 17.7429 27.9938 17.2601ZM26.8548 17.9022C26.7095 18.0475 26.5032 18.1225 26.297 18.1038L25.0643 17.9913C21.3989 17.6538 17.9491 16.032 15.3477 13.4306C13.4072 11.4901 13.4072 8.33097 15.3477 6.39047C16.2898 5.44834 17.5366 4.93275 18.8678 4.93275C20.199 4.93275 21.4457 5.44834 22.3879 6.39047C24.9893 8.99187 26.611 12.4463 26.9485 16.107L27.061 17.3398C27.0751 17.5507 27.0048 17.7569 26.8548 17.9022Z" fill="black"/>
<path d="M18.8631 8.91687C19.1303 8.91687 19.3787 9.01999 19.5662 9.20748C19.9787 9.61995 20.3677 10.0699 20.7145 10.5386C20.8083 10.6652 20.9489 10.7308 21.0942 10.7308C21.1926 10.7308 21.2864 10.7027 21.3708 10.6371C21.577 10.4824 21.6239 10.1918 21.4692 9.98086C21.0942 9.46996 20.677 8.98718 20.2318 8.54189C19.8662 8.17629 19.3834 7.97474 18.8631 7.97474C18.3475 7.97474 17.86 8.17629 17.4944 8.54189C17.3116 8.72469 17.3116 9.01999 17.4944 9.20279C17.6772 9.38559 17.9725 9.38559 18.1553 9.20279C18.3475 9.01999 18.6006 8.91687 18.8631 8.91687Z" fill="black"/>
<path d="M23.1144 13.5759C21.5489 13.1025 20.0677 12.2917 18.8256 11.2323C18.6287 11.0636 18.3334 11.087 18.1647 11.2839C17.996 11.4808 18.0194 11.7761 18.2163 11.9448C19.5709 13.1072 21.127 13.9556 22.8425 14.4759C22.8894 14.4899 22.9316 14.4946 22.9785 14.4946C23.18 14.4946 23.3675 14.3634 23.4284 14.1618C23.4987 13.9087 23.3581 13.6509 23.1144 13.5759Z" fill="black"/>
<path d="M21.6379 7.13573C21.4551 6.95293 21.1598 6.95293 20.977 7.13573C20.7942 7.31854 20.7942 7.61383 20.977 7.79663C22.4488 9.26841 23.5831 11.087 24.2674 13.0604C24.3331 13.2525 24.5159 13.3744 24.7127 13.3744C24.7643 13.3744 24.8158 13.365 24.8674 13.3463C25.1111 13.2619 25.2424 12.9947 25.158 12.751C24.4268 10.6511 23.2128 8.70595 21.6379 7.13573Z" fill="black"/>
<path d="M22.8566 15.5727C21.6098 15.2305 20.4193 14.7149 19.3178 14.04C19.0975 13.904 18.8069 13.9744 18.6756 14.1947C18.5397 14.415 18.61 14.7056 18.8303 14.8368C20.0068 15.5586 21.2817 16.107 22.6082 16.4726C22.6504 16.482 22.6925 16.4914 22.7347 16.4914C22.941 16.4914 23.1285 16.3555 23.1847 16.1492C23.2503 15.8961 23.105 15.6383 22.8566 15.5727Z" fill="black"/>
<path d="M16.7539 7.13573C16.5711 6.95293 16.2758 6.95293 16.093 7.13573C14.5649 8.66376 14.5649 11.1574 16.093 12.6854C16.1867 12.7791 16.3039 12.8213 16.4258 12.8213C16.5476 12.8213 16.6648 12.7744 16.7585 12.6854C16.9413 12.5026 16.9413 12.2073 16.7585 12.0245C15.5961 10.8621 15.5961 8.96374 16.7585 7.80132C16.9367 7.61852 16.9367 7.31854 16.7539 7.13573Z" fill="black"/>
<path d="M15.3524 21.0755C15.2305 21.0755 15.1087 21.127 15.0196 21.2114C14.9305 21.3004 14.8837 21.4176 14.8837 21.5442C14.8837 21.666 14.9352 21.7879 15.0196 21.877C15.1087 21.966 15.2258 22.0129 15.3524 22.0129C15.4789 22.0129 15.5961 21.9613 15.6852 21.877C15.7742 21.7879 15.8211 21.6707 15.8211 21.5442C15.8211 21.4176 15.7696 21.3004 15.6852 21.2114C15.5961 21.1223 15.4743 21.0755 15.3524 21.0755Z" fill="black"/>
</svg>
