<svg width="32" height="32" viewBox="0 0 32 32" fill="none" xmlns="http://www.w3.org/2000/svg">
<path d="M4.18761 25.5505C7.66777 27.7268 7.43795 27.6142 7.60211 27.6142C7.76627 27.6142 7.5599 27.708 10.8056 25.6865C14.0559 27.7174 13.8495 27.6142 14.009 27.6142C14.1685 27.6142 14.009 27.6846 16.6261 26.0477C16.8138 25.9304 16.87 25.6818 16.7528 25.4942C16.6355 25.3066 16.3869 25.2503 16.1993 25.3676L14.0043 26.7418L11.2042 24.9924V22.2345L12.6676 21.3199C12.8552 21.2027 12.9115 20.9541 12.7942 20.7665C12.677 20.5789 12.4284 20.5226 12.2408 20.6398L10.8056 21.5404L8.00547 19.7909V17.033L10.8056 15.2836C12.3674 16.2591 12.2642 16.2122 12.3768 16.231C12.5644 16.2638 12.752 16.1653 12.8224 15.9871C12.8927 15.8089 12.827 15.6072 12.6676 15.504L11.2042 14.5894V11.8315L14.0043 10.0821L16.8044 11.8315V12.4084C16.8044 12.6289 16.9826 12.8071 17.203 12.8071C17.4235 12.8071 17.6017 12.6289 17.6017 12.4084V11.8315L20.4018 10.0821L23.2019 11.8315V14.8098C23.2019 15.0303 23.3801 15.2085 23.6005 15.2085C23.821 15.2085 23.9992 15.0303 23.9992 14.8098V11.6064C23.9992 11.4704 23.9289 11.3391 23.8116 11.2687L20.7958 9.38323V6.40023C20.7958 6.26422 20.7254 6.13289 20.6082 6.06254L17.4188 4.0598C17.2875 3.98007 17.1233 3.98007 16.9967 4.0598L14.009 5.92652L11.0166 4.0598C10.8853 3.98007 10.7211 3.98007 10.5945 4.0598L7.39105 6.06254C7.27379 6.13758 7.20344 6.26422 7.20344 6.40023V9.37854L4.18761 11.264C4.07035 11.3391 4 11.4657 4 11.6017V14.8052C4 14.9412 4.07035 15.0725 4.18761 15.1429L7.20344 17.0283V19.7862L4.18761 21.6717C4.07035 21.7467 4 21.8734 4 22.0094V25.2128C4 25.3488 4.07035 25.4755 4.18761 25.5505ZM17.2077 4.87121L20.0078 6.62068V9.37854L17.2077 11.128L14.4077 9.37854V6.62068L17.2077 4.87121ZM10.8056 4.87121L13.6056 6.62068V9.37854L10.8056 11.128L8.00547 9.37854V6.62068L10.8056 4.87121ZM4.80203 11.8269L7.60211 10.0774L10.4022 11.8269V14.5847L7.60211 16.3342L4.80203 14.5847V11.8269ZM4.80203 22.2298L7.60211 20.4804L10.4022 22.2298V24.9877L7.60211 26.7372L4.80203 24.9877V22.2298Z" fill="black"/>
<path d="M22.4092 16.0106V15.6072C22.4092 14.9083 22.0997 14.2423 21.5697 13.7827L21.9683 12.9807C22.0668 12.7837 21.9824 12.5445 21.7854 12.446C21.5884 12.3475 21.3492 12.4272 21.2507 12.6242L20.8802 13.3699C20.3221 13.1495 19.6983 13.1495 19.1354 13.3699L18.7649 12.6242C18.7039 12.4929 18.5726 12.4084 18.4319 12.3991C18.2865 12.3897 18.1505 12.46 18.0707 12.5773C17.991 12.6992 17.9816 12.8493 18.0473 12.9807L18.446 13.7827C17.9113 14.2376 17.6017 14.9037 17.6017 15.6072V16.0106C17.2359 16.0059 16.8419 16.0059 16.401 16.0059C14.2763 16.0059 11.9969 16.9721 11.9969 18.4073C11.9969 20.1333 15.2472 21.0385 16.8653 20.7665C16.8278 21.0854 16.7997 21.5216 16.7997 21.8124C16.7997 24.6125 18.0004 26.8497 19.5998 27.1733V27.6189C19.5998 27.8394 19.778 28.0176 19.9984 28.0176C20.2189 28.0176 20.3971 27.8394 20.3971 27.6189V27.1687C21.9965 26.845 23.1972 24.6078 23.1972 21.8077C23.1972 21.5216 23.169 21.0807 23.1315 20.7665C24.7684 21.0385 28 20.1239 28 18.4073C28 16.9721 25.7252 16.0059 23.5959 16.0059C23.1925 16.0059 22.7844 16.0059 22.4092 16.0106ZM18.4084 15.6072C18.4084 14.7207 19.126 14.0078 20.0078 14.0078C20.8943 14.0078 21.6072 14.7254 21.6072 15.6072V16.0293C21.0678 16.0199 20.5237 16.0997 20.0078 16.2591C19.4919 16.0903 18.9478 16.0152 18.4038 16.0293V15.6072H18.4084ZM20.0125 18.1587C20.2001 18.5339 20.4299 18.8857 20.702 19.2046H19.3183C19.5857 18.8857 19.8202 18.5339 20.0125 18.1587ZM12.8036 18.4073C12.8036 17.685 14.4639 16.8079 16.4057 16.8079C17.2077 16.8079 19.0979 16.7938 19.5951 16.9533C19.4591 17.9148 18.0614 20.0113 16.4057 20.0113C14.4686 20.0066 12.8036 19.1296 12.8036 18.4073ZM18.4929 20.0066H21.5181C21.762 20.1989 22.0246 20.3631 22.3013 20.4991C22.3154 20.6023 22.3295 20.7055 22.3436 20.8087H19.6091C19.3887 20.8087 19.2105 20.9869 19.2105 21.2073C19.2105 21.4278 19.3887 21.606 19.6091 21.606H22.3998C22.4186 21.8734 22.4139 22.1407 22.3858 22.4081H17.6299C17.6017 22.1407 17.597 21.8734 17.6158 21.606H18.0051C18.2255 21.606 18.4038 21.4278 18.4038 21.2073C18.4038 20.9869 18.2255 20.8087 18.0051 20.8087H17.6721C17.6861 20.7008 17.7002 20.5976 17.7143 20.4897C17.9957 20.3584 18.2537 20.1989 18.4929 20.0066ZM18.2068 24.8095H20.0078C20.2283 24.8095 20.4065 24.6312 20.4065 24.4108C20.4065 24.1903 20.2283 24.0121 20.0078 24.0121H17.9113C17.8362 23.7495 17.7753 23.4821 17.7284 23.2101H22.292C22.2451 23.4821 22.1841 23.7495 22.109 24.0121H21.6119C21.3914 24.0121 21.2132 24.1903 21.2132 24.4108C21.2132 24.6312 21.3914 24.8095 21.6119 24.8095H21.8136C20.838 26.9435 19.1823 26.9435 18.2068 24.8095ZM27.212 18.4073C27.212 19.4016 24.2384 20.4053 22.8126 19.8519C21.6213 19.289 20.7442 18.229 20.4206 16.9533C20.9975 16.7798 22.7282 16.8079 23.6099 16.8032C25.5517 16.8079 27.212 17.685 27.212 18.4073Z" fill="black"/>
</svg>
