<svg width="32" height="32" viewBox="0 0 32 32" fill="none" xmlns="http://www.w3.org/2000/svg">
<path d="M15.3672 10.0563C15.2031 9.85 14.9031 9.81719 14.6969 9.98125C14.4484 10.1781 14.1531 10.2859 13.8344 10.2859C13.5156 10.2859 13.2203 10.1828 12.9719 9.98125C12.7656 9.81719 12.4656 9.85 12.3016 10.0563C12.1375 10.2625 12.1703 10.5625 12.3766 10.7266C12.7891 11.0594 13.3094 11.2375 13.8391 11.2375C14.3688 11.2375 14.8891 11.0547 15.3016 10.7266C15.4984 10.5625 15.5313 10.2625 15.3672 10.0563Z" fill="black"/>
<path d="M27.6531 16.8016C27.2687 15.7469 26.6031 14.8422 25.7265 14.1859C25.1031 13.7219 24.3953 13.4031 23.6312 13.2391C23.7953 11.7344 23.3265 10.1734 22.3469 8.9875C21.2875 7.70781 19.764 7 18.0578 7H17.7812C16.5859 7 15.4281 7.42188 14.4297 8.22344C14.2562 8.35938 14.05 8.43438 13.8297 8.43438C13.6094 8.43438 13.4031 8.35938 13.2297 8.22344C12.2359 7.42188 11.0781 7 9.88281 7H9.60624C8.37343 7 7.22031 7.375 6.27343 8.07813C5.39218 8.73438 4.72656 9.63438 4.34687 10.6938C3.96718 11.7438 3.89687 12.8594 4.15468 13.9188C4.42656 15.0625 5.06875 16.0797 6.01093 16.8672C6.72812 17.4672 7.51562 17.9828 8.34999 18.4C8.31718 18.9484 8.36406 19.4922 8.49062 20.0266C8.76249 21.1703 9.40468 22.1875 10.3469 22.975C12.5359 24.8031 15.3156 25.8063 18.1703 25.8063C21.025 25.8063 23.8047 24.7984 25.9937 22.975C26.9359 22.1875 27.5781 21.1703 27.85 20.0266C28.1031 18.9672 28.0375 17.8516 27.6531 16.8016ZM8.49999 17.4016C7.83437 17.0453 7.20624 16.6188 6.62031 16.1313C4.79218 14.6078 4.7125 12.4891 5.24218 11.0172C5.77656 9.53594 7.20624 7.95625 9.60156 7.95625H9.87812C10.8531 7.95625 11.8047 8.30781 12.6297 8.96875C12.9672 9.24063 13.3937 9.39063 13.825 9.39063C14.2562 9.39063 14.6828 9.24063 15.0203 8.96875C15.8453 8.30313 16.7969 7.95625 17.7719 7.95625H18.0484C19.4641 7.95625 20.725 8.5375 21.6015 9.59688C22.4172 10.5813 22.8015 11.8703 22.675 13.1125C22.5812 13.1078 22.4828 13.1031 22.3844 13.1031H22.1078C20.9125 13.1031 19.7547 13.525 18.7562 14.3266C18.5828 14.4625 18.3766 14.5375 18.1562 14.5375C17.9359 14.5375 17.7297 14.4625 17.5562 14.3266C16.5578 13.525 15.4 13.1031 14.2047 13.1031H13.9281C12.6953 13.1031 11.5469 13.4781 10.5953 14.1813C9.71406 14.8375 9.04843 15.7375 8.66874 16.7969C8.60781 16.9984 8.54687 17.2 8.49999 17.4016ZM25.3797 22.2391C23.364 23.9219 20.8 24.85 18.1703 24.85C15.5406 24.85 12.9719 23.9219 10.9562 22.2391C9.12812 20.7156 9.04843 18.5969 9.57812 17.125C10.1125 15.6438 11.5422 14.0641 13.9375 14.0641H14.2141C15.1891 14.0641 16.1406 14.4156 16.9656 15.0766C17.3031 15.3484 17.7297 15.4984 18.1609 15.4984C18.5922 15.4984 19.0187 15.3484 19.3562 15.0766C20.1812 14.4109 21.1328 14.0641 22.1078 14.0641H22.3844C24.7797 14.0641 26.2094 15.6484 26.7437 17.125C27.2875 18.5969 27.2078 20.7156 25.3797 22.2391Z" fill="black"/>
<path d="M19.6234 16.0984C19.4594 15.8922 19.1594 15.8594 18.9531 16.0234C18.7047 16.2203 18.4094 16.3281 18.0906 16.3281C17.7719 16.3281 17.4766 16.225 17.2281 16.0234C17.0219 15.8594 16.7219 15.8922 16.5578 16.0984C16.3937 16.3047 16.4266 16.6047 16.6328 16.7688C17.0453 17.1016 17.5656 17.2797 18.0953 17.2797C18.625 17.2797 19.1453 17.0969 19.5578 16.7688C19.7594 16.6047 19.7922 16.3047 19.6234 16.0984Z" fill="black"/>
<path d="M23.3172 22.4453C23.1953 22.2109 22.9094 22.1172 22.675 22.2391C21.2734 22.9563 19.7594 23.3219 18.1703 23.3219C17.9078 23.3219 17.6922 23.5375 17.6922 23.8C17.6922 24.0625 17.9078 24.2781 18.1703 24.2781C19.9094 24.2781 21.5734 23.8797 23.1109 23.0875C23.3453 22.9703 23.4344 22.6797 23.3172 22.4453Z" fill="black"/>
<path d="M25.1688 21.0953C25 20.8938 24.7 20.8656 24.4938 21.0344C24.3813 21.1281 24.2688 21.2172 24.1563 21.3063C23.9453 21.4656 23.9078 21.7656 24.0672 21.9766C24.1609 22.0984 24.3016 22.1641 24.4469 22.1641C24.55 22.1641 24.6484 22.1312 24.7375 22.0656C24.8641 21.9719 24.9859 21.8688 25.1078 21.7703C25.3094 21.5969 25.3375 21.2969 25.1688 21.0953Z" fill="black"/>
</svg>
