<svg width="24" height="24" viewBox="0 0 24 24" fill="none" xmlns="http://www.w3.org/2000/svg">
<g clip-path="url(#clip0)">
<path d="M16.2667 12L23.2 5.06667C24.2667 4 24.2667 2.4 23.2 1.46667L22.6667 0.933333C21.6 -0.133333 20 -0.133333 19.0667 0.933333L12 7.73333L5.06667 0.8C4 -0.266667 2.4 -0.266667 1.33333 0.8L0.8 1.33333C-0.266667 2.4 -0.266667 4 0.8 4.93333L7.73333 12L0.8 18.9333C-0.266667 20 -0.266667 21.6 0.8 22.5333L1.33333 23.2C2.4 24.2667 4 24.2667 4.93333 23.2L12 16.2667L18.9333 23.2C20 24.2667 21.6 24.2667 22.5333 23.2L23.0667 22.6667C24.1333 21.6 24.1333 20 23.0667 19.0667L16.2667 12Z" fill="#0D0E0F"/>
</g>
<defs>
<clipPath id="clip0">
<rect width="24" height="24" fill="white"/>
</clipPath>
</defs>
</svg>
