<svg width="32" height="32" viewBox="0 0 32 32" fill="none" xmlns="http://www.w3.org/2000/svg">
<path d="M20.443 16.7139C22.6035 15.2251 22.0963 11.5147 19.5084 10.8008C19.3252 10.7491 18.5973 10.7773 18.508 10.6928C18.3624 10.5519 18.2732 9.88024 18.1605 9.67359C17.8364 9.07711 17.3198 8.59805 16.7139 8.30686C15.4458 7.69629 13.9147 7.9593 12.9706 9.01605C12.0595 7.78553 10.472 7.40979 9.10058 8.07202C8.49001 8.36322 7.96398 8.83758 7.62582 9.41997C7.45205 9.72055 7.32524 10.0446 7.25479 10.3875C7.17494 10.7961 7.27827 11.1718 7.24539 11.571C7.22191 11.8481 7.28766 11.7918 6.98708 11.9045C6.818 11.9703 6.65361 12.0501 6.49393 12.144C6.14637 12.3554 5.84578 12.6325 5.60156 12.9566C5.13659 13.5765 4.89706 14.3609 4.92054 15.1358C4.92993 15.4881 5.00038 15.8403 5.1225 16.1738C5.19295 16.3663 5.28688 16.5542 5.39021 16.7327C5.43717 16.8078 5.5452 16.9206 5.56868 16.9957C5.63913 17.2117 5.63913 17.038 5.5358 17.2446C5.33854 17.6298 4.9769 17.9069 4.80312 18.3296C4.62465 18.757 4.54011 19.2172 4.54481 19.6822C4.5495 20.119 4.63874 20.5511 4.80782 20.9503C4.88766 21.1429 5.01917 21.3072 5.10371 21.4951C5.17416 21.6501 5.23052 21.636 5.19295 21.7675C5.17416 21.8286 4.91115 22.0211 4.87357 22.0634C4.30058 22.6975 3.9953 23.5335 3.99999 24.3742C4.01408 26.1918 5.50762 27.7135 7.34872 27.6196C8.17533 27.5773 8.97377 27.211 9.54207 26.6051C9.62661 26.5159 9.85674 26.0791 9.95537 26.0462C10.0352 26.0227 10.4438 26.2341 10.5284 26.2575C10.9605 26.3703 11.416 26.3844 11.8575 26.3045C12.6794 26.1589 13.4309 25.6892 13.9194 25.0129C14.0556 24.8298 14.1307 24.5996 14.2622 24.4211C14.2951 24.3789 14.3186 24.2004 14.3609 24.1769C14.3796 24.1675 14.6661 24.2615 14.7272 24.2708C15.2063 24.3648 15.7088 24.3413 16.1832 24.2098C16.681 24.0689 17.146 23.8059 17.5264 23.4536C17.6297 23.355 17.9444 22.8478 18.0571 22.8055C18.1839 22.7632 18.6113 22.9511 18.7616 22.9699C19.7573 23.0779 20.7671 22.6834 21.4528 21.9601C22.9323 20.382 22.4203 17.6391 20.443 16.7139C20.5699 16.6247 20.6967 16.5401 20.8235 16.4509C20.6967 16.5401 20.5699 16.6247 20.443 16.7139ZM17.8035 13.3511C17.9209 13.2149 18.0383 13.0552 18.1182 12.8955C18.1464 12.8485 18.1699 12.8016 18.1933 12.7499C18.3061 12.5198 18.4 12.2849 18.4564 12.036C18.5362 11.6932 18.4657 11.6462 18.8039 11.6133C19.128 11.5851 19.5178 11.7448 19.7855 11.9045C20.3256 12.2286 20.6779 12.7922 20.8188 13.3981C20.955 13.9898 20.8939 14.638 20.6121 15.1781C20.4618 15.4693 20.2458 15.7229 19.9828 15.9155C19.8935 15.9812 19.1092 16.357 19.1092 16.2724C19.1092 16.2583 19.1092 16.2395 19.1092 16.2254C19.1139 16.1174 19.1092 16 19.0998 15.892C19.0998 15.8732 19.0951 15.8591 19.0951 15.8403C19.0951 15.8403 19.0951 15.8356 19.0951 15.8309C18.9965 14.8728 18.508 13.9945 17.7143 13.4403C17.7472 13.4168 17.7753 13.384 17.8035 13.3511C17.8176 13.337 17.7753 13.384 17.8035 13.3511C17.9209 13.2149 17.7753 13.384 17.8035 13.3511ZM17.7378 14.746C17.7472 14.7554 17.7519 14.7648 17.7565 14.7742C17.874 14.9386 17.9632 15.117 18.0383 15.3002C18.0477 15.3237 18.0524 15.3425 18.0618 15.366C18.0665 15.3753 18.0665 15.3847 18.0712 15.3941C18.0759 15.4082 18.0806 15.4223 18.0853 15.4364C18.137 15.5867 18.1605 15.7464 18.1839 15.9014C18.1839 15.9249 18.1886 15.9436 18.1886 15.9671C18.1886 15.9765 18.1886 15.9906 18.1933 16C18.1933 16.0235 18.198 16.0423 18.198 16.0658C18.198 16.0705 18.198 16.0752 18.198 16.0799C18.2074 16.2818 18.2027 16.5213 18.137 16.7139C18.1323 16.7327 18.1323 16.7515 18.1276 16.7656C17.7941 17.5734 17.2775 18.292 16.371 18.4845C15.8074 18.6067 15.1264 18.5033 14.6567 18.1511C14.6192 18.1276 14.5816 18.0994 14.5487 18.0759C13.5859 17.3433 13.4074 16.0235 13.9804 14.9902C14.5722 13.9194 15.6524 13.6047 16.7702 13.9804C16.7937 13.9898 16.8172 14.0039 16.8407 14.0133C16.8642 14.0227 16.8877 14.0368 16.9111 14.0462C16.9158 14.0462 16.9205 14.0509 16.9252 14.0509C16.991 14.0838 17.0567 14.1213 17.1178 14.1636C17.1742 14.2012 17.2305 14.2388 17.2869 14.281C17.3385 14.3186 17.3855 14.3609 17.4325 14.4078C17.4419 14.4172 17.4513 14.4219 17.456 14.4313C17.5217 14.483 17.7143 14.7178 17.7378 14.746C17.7425 14.7554 17.7096 14.7084 17.7378 14.746ZM12.8156 15.2532C12.7875 15.3566 12.764 15.4646 12.7452 15.5679C12.0783 15.5867 11.4912 15.2908 11.0309 14.8258C10.7444 14.5112 10.5472 14.126 10.4579 13.708C10.0211 12.562 11.0826 11.1718 12.1487 10.9041C12.0266 12.0736 12.5667 13.2712 13.5295 13.9523C13.1961 14.328 12.9519 14.7789 12.8156 15.2579C12.8344 15.1922 12.8532 15.1264 12.872 15.056C12.8532 15.1264 12.8344 15.1875 12.8156 15.2532C12.7875 15.3566 12.9519 14.7695 12.8156 15.2532ZM13.4967 18.3436C12.9659 18.7194 12.4869 19.3018 12.3037 19.9358C12.2286 19.917 12.1534 19.8982 12.0783 19.8701C11.8669 19.7996 11.6368 19.7855 11.416 19.7808C11.3268 19.7808 11.2376 19.7808 11.1483 19.7855C11.0779 19.7996 11.0121 19.8043 10.9417 19.8043C10.8853 19.809 10.829 19.8137 10.7773 19.8278C10.7726 19.8278 10.7679 19.8278 10.7679 19.8278C10.7444 19.8372 10.7209 19.8419 10.6974 19.8419C9.93189 19.4239 9.42465 18.5597 9.46692 17.6814V17.6767C9.46692 17.6532 9.46692 17.6298 9.47162 17.6063C9.47162 17.6016 9.47162 17.6016 9.47162 17.5969C9.47162 17.5781 9.47631 17.5593 9.47631 17.5452V17.5405C9.48101 17.4748 9.48571 17.3855 9.50449 17.3198C9.51858 17.2305 9.54207 17.1413 9.56555 17.0568C9.56555 17.0521 9.56555 17.0521 9.57025 17.0474C9.57025 17.0427 9.57494 17.038 9.57494 17.0333C9.62191 16.8736 9.69236 16.7327 9.76281 16.5824C9.80038 16.5166 9.83796 16.4509 9.88492 16.3851C10.007 16.1973 10.162 16.0282 10.3405 15.8873C10.3922 15.8356 10.4438 15.7934 10.5096 15.7605C10.5284 15.7464 10.5472 15.7323 10.5659 15.7229C10.58 15.7135 10.5941 15.7041 10.6082 15.6994C11.1859 16.2114 11.9233 16.4932 12.6935 16.4932H12.7076C12.7217 16.6716 12.7405 16.9299 12.825 17.0943C12.8344 17.1272 12.8438 17.1601 12.8579 17.1977C12.8579 17.2024 12.8626 17.2024 12.8626 17.2071C12.872 17.2399 12.8861 17.2728 12.8955 17.3104C13.027 17.6861 13.2337 18.0384 13.4967 18.3436ZM13.337 10.0963C13.337 10.0916 13.3417 10.0869 13.3417 10.0822V10.0775C14.4595 8.02975 17.6016 8.9456 17.6297 11.2141C17.6297 11.2188 17.6297 11.2235 17.6297 11.2282V11.2329C17.6297 11.7777 17.4419 12.3037 17.1131 12.7311C17.1084 12.7358 17.1084 12.7358 17.1037 12.7405C17.0286 12.8391 16.9393 12.9284 16.8501 13.0129C16.2301 12.811 15.3753 12.7734 14.7742 13.074C14.6849 13.1069 14.3421 13.3276 14.2669 13.3229C14.1448 13.3182 13.9569 13.1163 13.8724 13.0458C13.6 12.8157 13.3839 12.5198 13.243 12.191C13.243 12.1863 13.2383 12.1816 13.2383 12.1816C12.9565 11.5147 13.0223 10.6599 13.3182 10.1151C13.2947 10.1714 13.2994 10.162 13.337 10.0963C13.337 10.0916 13.2665 10.2278 13.337 10.0963ZM10.411 8.64032C11.2517 8.64032 12.0219 9.11938 12.4211 9.87085C12.4164 9.88024 12.4164 9.88494 12.4117 9.89433C12.407 9.90373 12.4023 9.91781 12.3976 9.92721C10.7585 10.0822 9.50449 11.5476 9.48101 13.1726C9.29314 13.0928 9.10997 12.9753 8.95498 12.8391C8.9362 12.8251 8.92211 12.811 8.90332 12.7969C7.21252 11.5241 8.40547 8.64032 10.411 8.64032ZM7.63991 12.6795C7.64461 12.6842 7.64461 12.6889 7.64931 12.6935C7.70567 12.7922 7.79021 12.9472 7.87475 13.0317C7.88884 13.0505 7.89823 13.0646 7.91232 13.0834C7.92171 13.0928 7.93111 13.1069 7.9405 13.1163C7.95459 13.1303 7.96398 13.1491 7.97807 13.1632C8.227 13.4638 8.55577 13.7503 8.91271 13.9241C9.10058 14.0227 9.48101 14.0697 9.62661 14.2012C9.7769 14.3327 9.87553 14.8071 9.99295 14.9949C9.83326 15.0935 9.67827 15.2204 9.54676 15.3566C9.53737 15.3613 9.53267 15.3707 9.52328 15.3753C9.50919 15.3894 9.4998 15.3988 9.48571 15.4129C9.26966 15.629 9.09119 15.8779 8.94089 16.1503C8.94089 16.155 8.9362 16.1597 8.9362 16.1597C8.88923 16.1973 8.86575 16.2442 8.86575 16.2959C8.85635 16.3194 8.84226 16.3429 8.83287 16.3663C8.83287 16.3663 8.83287 16.3663 8.83287 16.371C8.79999 16.4415 8.77181 16.5166 8.74363 16.5918C8.72015 16.6528 8.69197 16.7186 8.68258 16.7844C8.67788 16.8031 8.67318 16.8219 8.66849 16.8407C8.66379 16.8595 8.65909 16.8783 8.6544 16.8971C8.6544 16.9018 8.6497 16.9112 8.6497 16.9159C8.645 16.9299 8.64031 16.944 8.64031 16.9581C8.64031 16.9628 8.64031 16.9628 8.64031 16.9675C8.61682 17.0708 8.60743 17.1789 8.57925 17.2822C8.57925 17.2869 8.57925 17.2869 8.57925 17.2869V17.2916C8.57925 17.2963 8.57925 17.301 8.57925 17.301V17.3104C8.55577 17.3151 8.52759 17.3198 8.5041 17.3245C8.32563 17.3526 8.13306 17.3667 7.94989 17.348H7.9452C7.92171 17.348 7.90293 17.3433 7.87944 17.3433C7.87475 17.3433 7.87005 17.3433 7.86535 17.3433C7.67749 17.3198 7.48962 17.2728 7.31115 17.2024C7.22661 17.1695 7.14676 17.1319 7.06692 17.0896C7.02465 17.0615 6.98238 17.038 6.94011 17.0192C6.91663 17.0051 6.89314 16.991 6.86966 16.9722C6.85087 16.9581 6.83209 16.9487 6.818 16.9346C6.818 16.9346 6.818 16.9346 6.8133 16.9346C6.76633 16.8971 6.72406 16.8642 6.6771 16.8266C5.23991 15.629 5.78473 13.0834 7.63991 12.6795C7.63052 12.6654 7.236 12.7687 7.17964 12.7828C7.33463 12.7405 7.48962 12.7123 7.63991 12.6795C7.64461 12.6842 6.60195 12.9049 7.63991 12.6795ZM6.36242 17.7519C6.52211 17.8599 6.83678 18.09 7.03404 18.09C7.31584 18.1934 7.63052 18.2638 7.93111 18.2779C8.0814 18.2873 8.25987 18.3014 8.41017 18.2685C8.52289 18.198 8.57925 18.1934 8.57925 18.2497C8.6544 18.7335 8.83757 19.3206 9.16633 19.6963C9.31193 19.8982 9.47631 20.0814 9.66418 20.2458L9.66888 20.2505C9.19921 20.5417 8.30684 21.3119 8.30684 21.9319C8.19882 21.9601 8.0814 21.9836 7.96868 21.993C7.95929 21.993 7.94989 21.993 7.9405 21.9977C5.6861 22.2043 4.62935 19.1139 6.36242 17.7519C6.36712 17.7566 6.15107 17.9773 6.11819 17.9538C6.11819 17.9538 6.43287 17.7002 6.36242 17.7519C6.44226 17.8035 5.79882 18.198 6.36242 17.7519ZM7.19843 26.7178C6.01017 26.7178 5.09901 25.7738 4.95811 24.6231C4.89236 24.083 4.99569 23.5241 5.28218 23.0591C5.3996 22.8665 5.61565 22.5237 5.83639 22.4485C6.09471 22.3593 6.57377 22.6975 6.87905 22.8008C7.21721 22.8994 7.58825 22.9511 7.9405 22.9182C8.00156 22.9135 8.05792 22.9088 8.11897 22.9041C8.09549 23.3033 8.14715 23.7354 8.28336 24.1112C8.33502 24.2755 8.39608 24.454 8.48532 24.5996C8.60743 24.8391 8.76242 25.0928 8.95498 25.2853C9.18982 25.5577 9.218 25.5436 8.98316 25.8442C8.84696 26.018 8.69197 26.1683 8.51349 26.2951C8.12837 26.5722 7.66809 26.7178 7.19843 26.7178ZM13.5859 23.4677C13.5859 23.4724 13.5859 23.4724 13.5859 23.4677C13.2947 25.2478 11.1061 26.0556 9.78629 24.7969C9.19451 24.2286 8.84696 23.3926 9.06301 22.58C9.26966 21.8145 9.89901 20.9033 10.7585 20.7765C11.1859 20.6638 12.0501 20.6262 12.3976 20.9738C12.3976 20.9738 12.3976 20.9738 12.4023 20.9738C13.2853 21.4575 13.7409 22.5566 13.5906 23.4348C13.5953 23.3926 13.5953 23.402 13.5859 23.4677C13.5859 23.4724 13.6047 23.3409 13.5859 23.4677ZM15.3331 23.4161C15.0607 23.4161 14.7882 23.3644 14.5346 23.2658C14.544 23.139 14.5487 22.9934 14.5346 22.8665C14.5252 22.7303 14.5064 22.5941 14.483 22.4579C14.4783 22.4298 14.4736 22.4016 14.4642 22.3734C14.4642 22.3734 14.4642 22.3734 14.4642 22.3687C14.4595 22.3452 14.4548 22.317 14.4454 22.2935C14.4454 22.2889 14.4454 22.2889 14.4454 22.2889C14.328 21.8568 14.0931 21.1194 13.6939 20.8517C13.6751 20.8282 13.6564 20.8094 13.6376 20.7906C13.6282 20.7812 13.6188 20.7671 13.6094 20.7577C13.4685 20.6074 13.3088 20.4759 13.1444 20.3585C13.1444 20.3538 13.1491 20.3491 13.1491 20.3444C13.1538 20.3303 13.1585 20.3162 13.1632 20.3022C13.2055 20.1613 13.2712 20.011 13.3464 19.8795C13.4497 19.6822 13.5859 19.499 13.7456 19.344C13.7597 19.3299 13.7691 19.3206 13.7832 19.3065C13.7973 19.2924 13.8066 19.283 13.8207 19.2736C13.8301 19.2642 13.8395 19.2548 13.8536 19.2454C13.8583 19.2407 13.863 19.236 13.8724 19.2313C13.8818 19.2219 13.8959 19.2125 13.9053 19.2031C14.0039 19.1139 14.1213 19.0388 14.2387 18.973C14.746 19.2924 15.319 19.4521 15.9201 19.4521C15.9201 19.4568 15.9201 19.4662 15.9201 19.4708C15.892 19.9405 15.9577 20.4102 16.1174 20.8517C16.2066 21.0959 16.4509 21.744 16.7092 21.8755C16.7139 21.8849 16.7233 21.8943 16.7327 21.899C16.7468 21.9178 16.7609 21.9319 16.7749 21.946C16.8689 22.0493 16.9675 22.148 17.0755 22.2372C17.2775 22.3076 17.2916 22.4016 17.1272 22.5237C17.0567 22.6975 16.7984 22.8712 16.6528 22.9793C16.263 23.2611 15.8074 23.4161 15.3331 23.4161ZM19.1139 22.0775C17.6861 22.0775 16.6387 20.6826 16.8548 19.3112C17.2728 19.1797 17.8035 18.9354 18.0806 18.5832C18.1135 18.5503 18.1464 18.5221 18.1746 18.4892C18.1792 18.4845 18.1839 18.4799 18.1886 18.4752C18.2309 18.4329 18.2732 18.3859 18.3108 18.3389C18.3248 18.3249 18.3342 18.3108 18.3483 18.2967C18.353 18.292 18.3577 18.2873 18.3624 18.2779C18.4329 18.1934 18.5268 18.0806 18.5785 17.982C18.6959 17.7988 18.8039 17.6016 18.8791 17.3996C18.8837 17.3855 18.8884 17.3761 18.8931 17.362C20.2035 17.2352 21.3495 18.3436 21.3965 19.6305C21.4434 20.8939 20.4149 22.0775 19.1139 22.0775Z" fill="black"/>
<path d="M24.4446 10.7491C24.191 10.7491 23.9843 10.5425 23.9843 10.2888C23.9843 10.0352 24.191 9.82856 24.4446 9.82856C24.6982 9.82856 24.9049 10.0352 24.9049 10.2888C24.9049 10.5425 24.6982 10.7491 24.4446 10.7491Z" fill="black"/>
<path d="M27.8027 11.8388C27.3894 10.1386 26.1542 8.68729 24.1252 7.51782C24.4164 7.07633 25.9241 4.18788 24.8532 4.0094C24.2004 3.90138 24.2051 5.03798 24.083 5.43719C23.8763 6.11821 23.571 6.77105 23.1295 7.33465C22.2747 8.45715 20.8517 9.0912 19.4567 9.0912C19.0622 9.06772 18.8227 9.56557 19.0857 9.86146C19.2689 10.0634 19.5789 10.0211 19.8278 10.0071C20.7295 9.9507 21.636 9.6642 22.4063 9.19453C21.5186 12.4916 23.7025 14.9573 26.3045 16.6247C26.3092 16.6294 26.3139 16.6294 26.3186 16.6341C26.3937 16.681 26.5017 16.7045 26.591 16.6951C26.5957 16.6951 26.6051 16.6951 26.6145 16.6904C26.6333 16.6904 26.6473 16.6857 26.6661 16.681C26.6943 16.6763 26.7225 16.6622 26.7507 16.6528C26.7554 16.6528 26.7554 16.6482 26.7601 16.6482C26.7648 16.6482 26.7648 16.6435 26.7695 16.6435C26.8352 16.6106 26.8916 16.5636 26.9338 16.5026C26.9338 16.5026 26.9385 16.4979 26.9385 16.4932C26.9902 16.4086 28.4086 14.3327 27.8027 11.8388C27.3894 10.1386 28.4086 14.3327 27.8027 11.8388ZM26.652 15.0043C26.4078 14.22 26.1589 13.4356 25.8912 12.656C25.7644 12.2802 25.6047 11.3644 25.1115 11.308C24.3084 11.2188 24.7452 12.1769 24.8767 12.5433C25.1773 13.3793 25.4403 14.2341 25.708 15.0795C24.67 14.2763 23.6791 13.2665 23.2845 11.9844C22.8994 10.7444 23.2094 9.49512 23.6744 8.32565C26.1166 9.73465 27.7652 12.1393 26.652 15.0043C26.2669 13.7785 26.652 15.0043 26.652 15.0043Z" fill="black"/>
</svg>
