<svg width="52" height="52" viewBox="0 0 52 52" fill="none" xmlns="http://www.w3.org/2000/svg">
<path d="M8.68487 21.0953L11.4295 18.8996H11.7039C12.5273 18.8996 13.0762 18.3507 13.0762 17.5273C13.0762 16.9784 12.8018 16.7039 12.5273 16.4295V10.6658H11.155V16.4295C10.6061 16.7039 10.3316 16.9784 10.3316 17.5273V17.8018L7.58703 19.9975L8.68487 21.0953Z" fill="black"/>
<path d="M50.4028 35.9161V27.1334C50.4028 24.3888 49.3049 23.291 49.3049 23.291C49.3049 23.291 46.5603 19.723 44.9136 17.5273C43.2668 15.3316 41.0711 15.3316 41.0711 15.3316H31.7395V13.9593C31.7395 12.0381 30.3672 10.6658 28.446 10.6658H20.4866C18.5654 7.92122 15.2719 6 11.7039 6C5.66582 6 1 10.9403 1 16.9784C1 19.4485 1.82338 21.6442 3.19568 23.5654V35.6417C3.19568 37.5629 4.56798 38.9352 6.48919 38.9352H7.86149V39.2096C7.86149 42.5031 10.6061 45.2477 13.8996 45.2477C17.1931 45.2477 19.9377 42.5031 19.9377 39.2096C19.9377 38.9352 19.9377 38.9352 19.9377 38.9352H28.1715H28.446C29.2694 38.9352 31.1906 38.9352 33.6607 38.9352V39.2096C33.6607 42.5031 36.4053 45.2477 39.6988 45.2477C42.9923 45.2477 45.7369 42.5031 45.7369 39.2096C45.7369 38.9352 45.7369 38.9352 45.7369 38.9352C46.0114 38.9352 46.2859 38.9352 46.2859 38.9352C50.9517 39.2096 50.4028 35.9161 50.4028 35.9161ZM49.0305 26.31C49.0305 26.31 49.0305 26.5845 49.0305 27.1334H38.3265C37.7776 27.1334 37.2287 26.5845 37.2287 26.0356V21.6442C37.2287 21.0953 37.7776 20.5464 38.3265 20.5464H45.4625C46.2859 21.3697 47.1092 22.4676 47.6582 23.291C49.0305 24.9377 49.0305 26.31 49.0305 26.31ZM11.7039 7.64676C16.9187 7.64676 21.31 11.7637 21.31 17.2529C21.31 22.742 16.9187 26.5845 11.7039 26.5845C6.4892 26.5845 2.3723 22.1931 2.3723 16.9784C2.3723 11.7637 6.4892 7.64676 11.7039 7.64676ZM13.6251 43.8754C11.155 43.8754 9.23379 41.9542 9.23379 39.4841C9.23379 37.014 11.155 35.0927 13.6251 35.0927C16.0953 35.0927 18.0165 37.014 18.0165 39.4841C18.0165 41.9542 16.0953 43.8754 13.6251 43.8754ZM19.1143 37.5629C18.291 35.3672 16.0953 33.446 13.6251 33.446C11.155 33.446 8.95933 35.0927 8.13595 37.5629H6.21474C5.39136 37.5629 4.56798 36.7395 4.56798 35.9161V24.9377C6.48919 26.5845 8.95933 27.6823 11.7039 27.6823C17.742 27.6823 22.4079 22.742 22.4079 16.9784C22.4079 15.3316 21.8589 13.6849 21.31 12.3126H28.446C29.2694 12.3126 30.0927 13.136 30.0927 13.9593V35.9161C30.0927 36.7395 29.2694 37.5629 28.446 37.5629H19.1143ZM39.4244 43.8754C36.9542 43.8754 35.033 41.9542 35.033 39.4841C35.033 37.014 36.9542 35.0927 39.4244 35.0927C41.8945 35.0927 43.8157 37.014 43.8157 39.4841C43.8157 41.9542 41.8945 43.8754 39.4244 43.8754ZM46.2859 37.8373H45.188C44.3646 35.3672 42.169 33.7204 39.6988 33.7204C36.9542 33.7204 34.7585 35.3672 34.2096 37.8373H31.465C32.014 37.2884 32.2884 36.7395 32.2884 35.9161V16.4295C32.2884 16.4295 38.3265 16.4295 40.7967 16.4295C43.2668 16.4295 44.3646 18.0762 44.3646 18.0762C44.3646 18.0762 44.0902 18.6251 44.6391 19.1741H38.3265C36.9542 19.1741 36.1308 20.2719 36.1308 21.3697V25.7611C36.1308 27.1334 37.2287 27.9568 38.3265 27.9568H49.3049C49.3049 30.1525 49.3049 33.446 49.3049 35.0927C49.0305 38.1118 46.2859 37.8373 46.2859 37.8373Z" fill="black"/>
</svg>
