<svg width="52" height="52" viewBox="0 0 52 52" fill="none" xmlns="http://www.w3.org/2000/svg">
<path d="M8.48057 31.0363C8.48057 31.6525 8.78867 32.2686 8.78867 32.8848C8.78867 35.3496 9.09676 39.3547 9.09676 39.3547H10.6372C10.6372 39.3547 10.6372 32.8848 9.71294 29.4958C8.78867 25.7987 8.48058 19.0207 10.6372 14.0913L9.09676 13.4751C9.09676 13.4751 7.24821 17.1722 7.24821 23.0259C7.24821 26.723 7.5563 28.2635 7.86439 29.8039C6.63203 28.8796 3.24303 25.7987 3.55112 19.3288C4.1673 11.9346 10.6372 5.15664 10.6372 5.15664C10.6372 5.15664 22.0366 15.9398 11.8696 27.9554L13.1019 28.8797C13.1019 28.8797 17.7233 23.6421 17.7233 17.7884C17.7233 11.9346 15.2586 7.00518 10.6372 3C10.6372 3 2.62685 10.7023 2.01066 19.945C1.70257 28.5716 8.17248 31.6525 8.17248 31.6525L8.48057 31.0363Z" fill="black"/>
<path d="M24.5013 23.0259C13.1019 26.4149 13.7181 37.5062 14.0262 39.9709C10.021 43.9761 8.17249 47.6732 8.17249 47.6732L9.40485 48.2894C21.1123 28.8797 39.2897 32.5768 39.2897 32.5768V31.0363C28.1984 29.8039 20.4961 34.1172 15.2586 38.4305C14.9505 34.4253 16.799 24.8745 28.5065 23.9502C42.0625 23.6421 48.5324 31.6525 48.5324 31.6525C41.4463 43.0518 33.436 44.5923 28.5065 45.2085C23.2689 46.1328 16.799 42.4357 16.799 42.4357L16.1829 43.668C16.1829 43.668 21.7285 47.3651 28.8146 46.7489C44.2191 44.9004 50.0729 31.3444 50.0729 31.3444C48.5324 28.2635 37.133 19.945 24.5013 23.0259Z" fill="black"/>
</svg>
