<svg width="76" height="95" viewBox="0 0 76 95" fill="none" xmlns="http://www.w3.org/2000/svg">
<path d="M38 0C24.7826 0 0 10 0 38.3333C0 66.6667 38 95 38 95C38 95 76 66.6667 76 38.3333C76 10 51.2174 0 38 0Z" fill="#0F5A47"/>
<path d="M14.539 29.1666C14.539 26.9999 15.1999 25 16.6868 23.4999C18.1738 21.9999 19.9912 21.3333 22.139 21.3333C24.4521 21.3333 26.2695 21.9999 27.7564 23.3333L26.7651 24.9999C26.2695 24.4999 25.6086 24.1666 24.7825 23.8333C23.9564 23.4999 23.1303 23.3333 22.4695 23.3333C20.8173 23.3333 19.3303 23.8333 18.339 24.9999C17.3477 26.1666 16.8521 27.4999 16.8521 29.1666C16.8521 30.8333 17.3477 32.3333 18.339 33.5C19.3303 34.6666 20.8173 35.3333 22.4695 35.3333C23.2955 35.3333 24.1216 35.1666 24.9477 34.8333C25.7738 34.5 26.4347 34 27.0955 33.3333L28.2521 34.8333C26.5999 36.5 24.6173 37.3333 22.4695 37.3333C20.3216 37.3333 18.339 36.5 16.8521 35C15.1999 33.3333 14.539 31.3333 14.539 29.1666Z" fill="white"/>
<path d="M30.7302 36.8333V21.5H32.878V28.1667H40.8085V21.5H42.9563V36.8333H40.8085V30.1667H32.878V36.8333H30.7302Z" fill="white"/>
<path d="M45.9303 29C45.9303 26.8333 46.5912 25 48.0781 23.5C49.5651 21.9999 51.3825 21.3333 53.6955 21.3333C56.0086 21.3333 57.826 21.9999 59.3129 23.5C60.7999 25 61.4608 26.8333 61.4608 29C61.4608 31.3333 60.7999 33.1666 59.3129 34.6666C57.826 36.1666 56.0086 37 53.6955 37C51.3825 37 49.5651 36.1666 48.0781 34.6666C46.7564 33.1666 45.9303 31.3333 45.9303 29ZM48.0781 29C48.0781 30.6666 48.5738 32.1666 49.7303 33.3333C50.8868 34.5 52.2086 35 53.6955 35C55.3477 35 56.6695 34.5 57.6608 33.3333C58.6521 32.1666 59.3129 30.6666 59.3129 29C59.3129 27.3333 58.8173 26 57.6608 24.8333C56.6695 23.6666 55.3477 23.1666 53.6955 23.1666C52.0434 23.1666 50.7216 23.6666 49.7303 24.8333C48.739 26 48.0781 27.3333 48.0781 29Z" fill="white"/>
<path d="M15.1998 49.1666C15.1998 46.9999 15.8607 44.9999 17.3477 43.4999C18.8346 41.9999 20.652 41.3332 22.7998 41.3332C25.1129 41.3332 26.9303 41.9999 28.4172 43.3332L27.4259 44.9999C26.9303 44.4999 26.2694 44.1666 25.4433 43.8332C24.6172 43.4999 23.7911 43.3332 23.1303 43.3332C21.4781 43.3332 19.9911 43.8332 18.9998 44.9999C18.0085 46.1666 17.5129 47.4999 17.5129 49.1666C17.5129 50.8332 18.0085 52.3332 18.9998 53.4999C19.9911 54.6666 21.4781 55.3332 23.1303 55.3332C23.9564 55.3332 24.7824 55.1666 25.6085 54.8332C26.4346 54.4999 27.0955 53.9999 27.7564 53.3332L28.9129 54.8332C27.2607 56.4999 25.2781 57.3332 23.1303 57.3332C20.9824 57.3332 18.9998 56.4999 17.5129 54.9999C15.8607 53.3332 15.1998 51.3332 15.1998 49.1666Z" fill="white"/>
<path d="M30.2347 49.1666C30.2347 46.9999 30.8955 44.9999 32.3825 43.4999C33.8695 41.9999 35.6868 41.3332 37.8347 41.3332C40.1477 41.3332 41.9651 41.9999 43.4521 43.3332L42.2955 44.9999C41.7999 44.4999 41.139 44.1666 40.3129 43.8332C39.4868 43.4999 38.6608 43.3332 37.9999 43.3332C36.3477 43.3332 34.8608 43.8332 33.8695 44.9999C32.8781 46.1666 32.3825 47.4999 32.3825 49.1666C32.3825 50.8332 32.8781 52.3332 33.8695 53.4999C34.8608 54.6666 36.3477 55.3332 37.9999 55.3332C38.826 55.3332 39.6521 55.1666 40.4781 54.8332C41.3042 54.4999 41.9651 53.9999 42.626 53.3332L43.7825 54.8332C42.1303 56.4999 40.1477 57.3332 37.9999 57.3332C35.6868 57.3332 33.8695 56.4999 32.3825 54.9999C30.8955 53.3332 30.2347 51.3332 30.2347 49.1666Z" fill="white"/>
<path d="M45.2695 48.9999C45.2695 46.8332 45.9304 44.9999 47.4173 43.4999C48.9043 41.9999 50.7217 41.3332 53.0347 41.3332C55.3478 41.3332 57.1652 41.9999 58.6521 43.4999C60.1391 44.9999 60.7999 46.8332 60.7999 48.9999C60.7999 51.3332 60.1391 53.1666 58.6521 54.6666C57.1652 56.1666 55.3478 56.9999 53.0347 56.9999C50.7217 56.9999 48.9043 56.1666 47.4173 54.6666C45.9304 53.1666 45.2695 51.3332 45.2695 48.9999ZM47.4173 48.9999C47.4173 50.6666 47.913 52.1666 49.0695 53.3332C50.226 54.4999 51.5478 54.9999 53.0347 54.9999C54.6869 54.9999 56.0086 54.4999 56.9999 53.3332C57.9912 52.1666 58.6521 50.6666 58.6521 48.9999C58.6521 47.3332 58.1565 45.9999 56.9999 44.8332C56.0086 43.6666 54.6869 43.1666 53.0347 43.1666C51.3825 43.1666 50.0608 43.6666 49.0695 44.8332C47.913 45.9999 47.4173 47.3332 47.4173 48.9999Z" fill="white"/>
</svg>
