<svg width="32" height="32" viewBox="0 0 32 32" fill="none" xmlns="http://www.w3.org/2000/svg">
<path d="M19.4701 18.3212C19.9297 19.0528 20.6565 19.4513 21.4349 19.4513C21.796 19.4513 22.1665 19.3669 22.5276 19.1887L23.925 18.6964L22.9918 17.5428C22.6026 16.9238 22.0164 16.5533 21.3787 16.4502C21.8664 16.4174 22.3494 16.2345 22.7667 15.8828L24.0047 15.0715L22.823 14.1758C22.5557 13.9132 22.2509 13.7397 21.932 13.6225C22.1993 13.4209 22.4291 13.1536 22.6073 12.83L23.4654 11.6202L22.0399 11.2169C21.4818 10.9824 20.9097 10.9637 20.4033 11.1278C20.7644 10.837 21.0457 10.4338 21.1958 9.93669L21.7913 8.58148L20.3142 8.47362C19.0715 8.23447 17.9601 8.90035 17.5944 10.1102L17.1161 11.1934C16.8206 10.8558 16.5018 10.5416 16.1547 10.2556L17.2989 9.64596C18.4807 9.19109 19.0621 8.03283 18.7292 6.8136L18.5135 5.34584L17.2052 6.03986C16.0234 6.49472 15.442 7.65299 15.7749 8.8769L15.9531 10.0868C15.5592 9.78195 15.1372 9.51934 14.687 9.28957L15.245 8.27198C15.9859 7.24502 15.8406 5.95545 14.8886 5.11606L13.9086 4L13.1958 5.29894C12.4549 6.32591 12.6002 7.61547 13.5522 8.45486L14.0211 8.98007C13.9179 8.93787 13.8195 8.89566 13.7116 8.85815C13.5287 8.79719 13.3411 8.86753 13.2333 9.01758L12.4642 8.13599C11.7515 7.09027 10.4947 6.78077 9.37866 7.38101L8 7.92497L8.97069 9.04103C9.43963 9.73036 10.143 10.1008 10.8933 10.1008C11.0199 10.1008 11.1465 10.0868 11.2685 10.0633C10.6729 10.2931 10.1852 10.7714 9.92732 11.4467L9.24267 12.7644L10.7104 12.966C10.9308 13.0223 11.1512 13.0504 11.3669 13.0504C11.7468 13.0504 12.1079 12.9566 12.4267 12.7878C12.3095 13.1348 12.2673 13.5193 12.3236 13.9226L12.3611 15.4045L13.7444 14.8746C13.857 14.8464 13.9648 14.8042 14.068 14.762C14.0352 14.8746 14.0023 14.9918 13.9836 15.1137L13.585 16.5393L15.0621 16.4408C15.0809 16.4408 15.0996 16.4361 15.1184 16.4408C14.8839 16.6518 14.6776 16.9097 14.5276 17.2239L13.7304 18.4713L15.1747 18.8042C15.3435 18.8652 15.5123 18.9027 15.6811 18.9261C15.0621 18.9777 14.476 19.2778 14.0399 19.8265L12.9848 20.8675L14.3212 21.51C14.7386 21.7773 15.1887 21.9086 15.6249 21.9086C16.3095 21.9086 16.9707 21.5944 17.4537 20.9894L17.51 20.9332C16.1923 24.1172 13.3552 26.4525 9.61782 27.1653C9.38804 27.2075 9.23798 27.4326 9.28019 27.6577C9.3177 27.8593 9.4959 28 9.69285 28C9.72098 28 9.74443 27.9953 9.77257 27.9906C13.5756 27.2638 16.5111 24.9801 18.0258 21.8429L17.9695 23.0856C17.7585 24.3329 18.4572 25.4256 19.6811 25.7632L21.0551 26.3212L21.1254 24.8394C21.3365 23.592 20.6377 22.4994 19.4138 22.1618L18.1336 21.6366C18.3634 21.1301 18.551 20.6049 18.7104 20.061L18.8886 20.6893C19.0856 21.9367 20.0938 22.7573 21.3599 22.687L22.837 22.7855L22.4338 21.3599C22.2368 20.1079 21.2192 19.2919 19.9625 19.3623L18.9027 19.2919C19.0012 18.8277 19.0762 18.354 19.1184 17.871L19.4701 18.3212ZM17.5287 6.80891L17.857 6.64009L17.9039 6.94959L17.9132 7.00117C18.143 7.81243 17.7679 8.55803 16.9801 8.85346L16.6518 9.02227L16.6049 8.71278L16.5955 8.6612C16.3611 7.84994 16.7362 7.10434 17.5287 6.80891ZM13.8898 5.77257L14.0727 5.449L14.2837 5.68347L14.3212 5.72098C14.959 6.27433 15.0528 7.09965 14.551 7.7796L14.3681 8.10317L14.1618 7.8687L14.1243 7.83118C13.4865 7.28253 13.3927 6.45252 13.8898 5.77257ZM18.8136 23.2169L18.8324 22.8511L19.1231 22.9683L19.1747 22.9871C19.9906 23.2028 20.4408 23.9015 20.2907 24.7362L20.272 25.102L19.9812 24.9848L19.9297 24.966C19.1137 24.7503 18.6635 24.0469 18.8136 23.2169ZM19.9672 20.2204H19.9953C20.8347 20.1594 21.4865 20.6893 21.6084 21.524L21.7069 21.8804L21.3646 21.857H21.3365C20.5018 21.9179 19.8453 21.388 19.7233 20.5533L19.6249 20.197L19.9672 20.2204ZM19.1653 16.9472C19.1653 16.8253 19.1747 16.7081 19.1747 16.5862C19.17 16.1735 19.1278 15.7655 19.0668 15.3669L19.5967 15.7702C19.9672 16.1313 20.4033 16.347 20.8581 16.422C20.5533 16.4455 20.2438 16.5252 19.9437 16.6753L19.1653 16.9472ZM18.5744 13.585L19.6108 13.8804C19.6764 13.9086 19.7421 13.932 19.803 13.9508C19.7515 13.9883 19.6999 14.0164 19.6483 14.0586L18.8886 14.5557C18.8089 14.2227 18.7011 13.8992 18.5744 13.585ZM22.2884 18.007L22.5182 18.2978L22.2227 18.4009L22.1712 18.4244C21.4209 18.8042 20.619 18.5791 20.1782 17.8617L19.9484 17.5709L20.2438 17.4678L20.2954 17.4443C21.0457 17.0598 21.8476 17.2849 22.2884 18.007ZM22.5463 15.0152L22.2837 15.1887L22.2415 15.2216C21.5991 15.7749 20.7691 15.7421 20.1688 15.1512L19.8781 14.9261L20.1407 14.7526L20.1829 14.7198C20.8206 14.1665 21.6553 14.1993 22.2556 14.7902L22.5463 15.0152ZM21.7304 11.9953L22.0821 12.0985L21.8992 12.3564L21.871 12.4033C21.4771 13.1489 20.6893 13.4256 19.9156 13.0926L19.5639 12.9894L19.7468 12.7315L19.7749 12.6846C20.1735 11.939 20.9566 11.6624 21.7304 11.9953ZM18.3775 10.415L18.3962 10.3634C18.6307 9.55217 19.3435 9.12075 20.1735 9.29426L20.5393 9.32239L20.4127 9.60844L20.3939 9.66002C20.1594 10.4713 19.442 10.898 18.6166 10.7292L18.2509 10.7011L18.3775 10.415ZM18.476 11.5639C18.6448 11.5967 18.8136 11.6155 18.9777 11.6155C19.2263 11.6155 19.4607 11.578 19.6858 11.5076C19.4326 11.7046 19.2122 11.9578 19.0434 12.2673L18.3962 13.177C18.1196 12.5721 17.7726 12 17.3646 11.4842L18.476 11.5639ZM17.3927 13.0504L16.4549 13.1114C16.0938 13.0926 15.7562 13.1536 15.4467 13.2708C15.5358 12.9519 15.5686 12.6049 15.517 12.2392L15.4795 10.7808C16.2673 11.3998 16.9144 12.1735 17.3927 13.0504ZM9.66002 8.55334L9.42087 8.27198L9.71161 8.15944L9.76319 8.13599C10.4994 7.72802 11.3107 7.92497 11.7749 8.62837L12.0141 8.90973L11.7233 9.02227L11.6717 9.04572C10.9355 9.45369 10.1243 9.25205 9.66002 8.55334ZM12.0563 9.79601L13.1676 9.35991C13.2005 9.49121 13.2943 9.60844 13.4302 9.65533C14.1759 9.91325 14.8558 10.2931 15.4607 10.7667L14.0961 11.2872C13.8898 11.3388 13.7069 11.4185 13.5334 11.5076L14.2181 10.1899L12.7503 9.98828C12.4033 9.89918 12.0703 9.88511 11.7515 9.93669C11.8546 9.89449 11.9578 9.85229 12.0563 9.79601ZM10.9121 12.1454L10.5463 12.0891L10.6917 11.8124L10.7151 11.7608C11.0012 10.9683 11.7421 10.5838 12.558 10.8089L12.9238 10.8652L12.7784 11.1419L12.755 11.1934C12.4642 11.9859 11.7233 12.3705 10.9121 12.1454ZM13.5287 14.0633L13.1817 14.1899L13.1723 13.8757L13.1676 13.8195C13.0363 12.9848 13.5006 12.2954 14.3212 12.0985L14.6682 11.9719L14.6776 12.286L14.6823 12.3423C14.8136 13.177 14.3494 13.8664 13.5287 14.0633ZM15.0668 15.5967L14.7245 15.6202L14.8089 15.32L14.8183 15.2638C14.9355 14.4666 15.5264 13.9555 16.3095 13.9555C16.347 13.9555 16.3845 13.9555 16.4267 13.9601H16.4549L16.7972 13.9367L16.7128 14.2368L16.7034 14.2931C16.5815 15.1278 15.9437 15.653 15.095 15.6014L15.0668 15.5967ZM17.5334 14.4431L17.7304 13.7444C18.0539 14.5135 18.2509 15.3482 18.3072 16.2157L17.4678 16.0234C17.2286 15.939 16.9894 15.8968 16.755 15.8828C17.163 15.5311 17.4443 15.0387 17.5334 14.4431ZM15.0903 17.9226L15.2591 17.66L15.2872 17.6131C15.6436 16.8488 16.4174 16.5346 17.2052 16.83L17.5662 16.9144L17.3974 17.177L17.3693 17.2239C17.0129 17.9883 16.2392 18.3072 15.4513 18.007L15.0903 17.9226ZM16.8441 20.4174L16.8066 20.4596C16.2907 21.1254 15.4654 21.2614 14.762 20.8019L14.4338 20.6377L14.6589 20.4174L14.6964 20.3751C15.2122 19.7093 16.0328 19.5733 16.7409 20.0328L17.0692 20.197L16.8441 20.4174ZM17.177 19.3107C16.8722 19.1137 16.544 19.0012 16.2204 18.9496C17.0223 18.8839 17.7351 18.4103 18.1196 17.6038L18.3118 17.3036C18.2743 18.129 18.1524 18.9215 17.9461 19.6811L17.177 19.3107Z" fill="black"/>
</svg>
