<svg width="32" height="32" viewBox="0 0 32 32" fill="none" xmlns="http://www.w3.org/2000/svg">
<g clip-path="url(#clip0)">
<path d="M26.4822 14.1448L26.3037 13.4356L25.6462 13.971C25.4114 13.3135 25.1624 12.919 25.0497 12.7546L24.9229 12.5761L24.7022 12.5573C24.5566 12.5479 24.2372 12.5386 23.7769 12.5949L24.0681 11.7072L23.2556 11.9045C23.0301 11.9609 22.7812 12.0313 22.5135 12.1205C22.5135 12.1205 22.5135 12.1205 22.5135 12.1159C22.6168 6.76164 20.3624 4.38513 20.1041 4.1362C20.0994 4.13151 20.0947 4.13151 20.09 4.12681C20.0853 4.12211 20.0806 4.11272 20.0759 4.10802C20.0431 4.08454 20.0102 4.07045 19.9726 4.05166C19.9538 4.04227 19.9397 4.03288 19.9209 4.02348C19.8599 4.0047 19.7941 3.9953 19.7284 4C19.7284 4 19.7284 4 19.7237 4C19.3667 4.03757 16.1213 4.48376 12.8337 8.75303C12.6458 9.03953 12.472 9.34012 12.3076 9.6454C10.8141 8.57456 9.6728 8.30215 9.33933 8.2411C9.20313 8.21761 9.06223 8.25518 8.9589 8.34442C8.78982 8.49002 7.78474 9.40587 6.991 11.3738C6.9816 11.3973 6.97221 11.416 6.96282 11.4395C6.49315 12.6278 6.09863 14.1824 6 16.1785C6.03757 17.3339 6.21605 18.5127 6.53542 19.6775C6.85479 20.8423 7.30098 21.946 7.87867 22.9933C9.22192 25.0129 10.4431 25.5155 11.4387 25.5155C12.0305 25.5155 12.5472 25.337 12.9558 25.1961C13.1718 25.1209 14.1065 24.8579 14.2614 24.825C14.7264 25.7691 15.5249 26.1589 16.1072 26.4407C16.3139 26.5393 17.3049 27.1076 17.4975 27.2297C17.9953 27.5585 18.6622 28 19.5875 28C20.4658 28 21.5742 27.6008 22.9879 26.3233C23.7816 25.4779 24.4861 24.5198 25.0826 23.4677C25.6791 22.4204 26.1487 21.3213 26.4775 20.1706C27.0411 17.4184 26.7922 15.3753 26.4822 14.1448ZM23.4528 13.5906C23.8755 13.5014 24.1996 13.4826 24.411 13.4779C24.5331 13.6892 24.7115 14.0556 24.8759 14.591L22.4947 16.5166L23.4528 13.5906ZM18.62 5.24931C18.2489 5.80352 17.8779 6.43288 17.4834 7.18904C17.3659 7.41448 17.4505 7.69628 17.6759 7.81839C17.7464 7.85597 17.8215 7.87006 17.892 7.87006C18.0611 7.87006 18.2207 7.78082 18.3053 7.62113C18.8313 6.62074 19.3057 5.85519 19.7941 5.20235C20.4282 6.03836 21.6587 8.17064 21.5836 12.0595C21.5695 12.2051 21.5507 12.3507 21.5272 12.4963C21.5131 12.501 21.5037 12.5057 21.4896 12.5151C21.3675 12.5714 21.2407 12.6278 21.1092 12.6935C21.0247 12.7358 20.9401 12.7781 20.8556 12.8204C20.8086 12.8438 20.7569 12.872 20.71 12.8955C20.2356 13.1491 19.7659 13.4356 19.2963 13.7597C19.2634 13.7785 19.2352 13.802 19.2023 13.8254C19.0943 13.9006 18.9863 13.9804 18.8783 14.0603C18.8313 14.0931 18.789 14.126 18.7421 14.1636C18.6434 14.2387 18.5448 14.3139 18.4462 14.3937C18.3851 14.4454 18.3194 14.4971 18.2536 14.5487C18.1691 14.6145 18.0892 14.6849 18.0047 14.7554C17.8544 14.8822 17.7041 15.0137 17.5538 15.1499C17.3566 15.3613 17.164 15.5773 16.9761 15.8027C16.591 16.2677 16.2294 16.7609 15.8959 17.2822C15.7456 17.517 15.6 17.7566 15.4591 18.0008C15.4403 18.0337 15.4215 18.0712 15.4027 18.1041C15.2431 18.3859 15.0975 18.6724 14.9566 18.9636C14.9519 18.9683 14.9519 18.9777 14.9472 18.9871L14.9378 19.0106C14.9331 19.02 14.9284 19.0294 14.9237 19.0387C14.9096 19.0716 14.8908 19.1092 14.8767 19.1421C15.2431 16.1456 15.9147 13.3323 16.8869 10.7726C16.9761 10.5331 16.8587 10.2654 16.6145 10.1714C16.375 10.0822 16.1025 10.1996 16.0133 10.4438C14.9894 13.1538 14.2849 16.1362 13.9186 19.3159C13.8341 19.2924 13.7542 19.2642 13.665 19.2407C12.6411 18.9542 11.3636 18.602 11.4247 15.4928C11.5327 14.4125 11.7816 13.3229 12.1573 12.2521C12.3546 11.6885 12.5988 11.1202 12.8806 10.5566C12.8806 10.5519 12.8806 10.5519 12.8853 10.5472C13.1061 10.1104 13.3409 9.68767 13.5945 9.29315C15.553 6.75695 17.4364 5.6955 18.62 5.24931ZM13.9796 23.9327C13.8012 23.9749 12.9605 24.2098 12.6552 24.3178C11.6501 24.6654 10.4008 25.1022 8.6771 22.5143C8.15108 21.5656 7.73307 20.5276 7.43718 19.4333C7.13659 18.3389 6.96751 17.2352 6.93464 16.1879C7.02387 14.4501 7.34325 13.0881 7.73307 12.0313C8.43288 11.9984 9.13268 11.9045 9.809 11.7354C10.0579 11.6744 10.2129 11.4207 10.1472 11.1718C10.0861 10.9229 9.83249 10.7679 9.58356 10.829C9.1092 10.9464 8.62544 11.0215 8.13699 11.0685C8.62544 10.0681 9.13738 9.47162 9.40039 9.20391C9.82309 9.31194 10.7342 9.62661 11.8849 10.4767C11.8708 10.5049 11.8614 10.5378 11.8474 10.5659C11.7534 10.7679 11.6595 10.9746 11.575 11.1812C11.4716 11.4348 11.373 11.6838 11.2885 11.9327C10.8892 13.0693 10.6262 14.234 10.5041 15.4223C10.429 19.2877 12.3076 19.8137 13.4254 20.1237C13.6462 20.1847 14.3037 20.4665 14.3178 20.4665C14.3225 20.4665 14.3366 20.4665 14.3366 20.4665C14.3272 20.49 14.3225 20.5182 14.3131 20.5464C14.2239 20.7906 14.1487 21.0254 14.083 21.2509C14.0783 21.265 14.0783 21.2744 14.0736 21.2885C14.0219 21.5374 13.9843 21.7722 13.9562 21.9977C13.9468 22.0728 13.9421 22.1479 13.9327 22.2231C13.9186 22.3687 13.9045 22.519 13.8951 22.6552C13.8904 22.7303 13.8904 22.7961 13.8904 22.8712C13.8857 23.0121 13.8904 23.1483 13.8951 23.2798C13.8998 23.3315 13.8998 23.3832 13.9045 23.4301C13.9186 23.6039 13.9374 23.7636 13.9656 23.9139C13.975 23.9186 13.975 23.928 13.9796 23.9327ZM25.5804 19.9546C25.2798 20.9973 24.8431 22.0258 24.2795 23.0121C23.7205 23.9984 23.0583 24.9002 22.3444 25.6611C20.0102 27.7699 18.9065 27.0419 18.0188 26.4548C17.7511 26.2763 16.807 25.7409 16.5205 25.6C15.9523 25.3229 15.3041 25.0035 14.9988 24.1581C14.9988 24.1487 14.9988 24.1393 14.9941 24.1346C14.7687 23.4865 14.7687 22.5988 14.9894 21.4998C15.0458 21.3025 15.1115 21.1006 15.182 20.9033C15.2431 20.7249 15.3135 20.537 15.3933 20.335C15.5155 20.0204 15.6517 19.7104 15.7926 19.4098C15.802 19.3863 15.816 19.3581 15.816 19.3581C15.816 19.3581 15.816 19.3581 15.816 19.3534C15.9616 19.0434 16.1166 18.7476 16.281 18.4564C16.4125 18.2262 16.5487 18.0008 16.6896 17.78C16.8352 17.5546 16.9855 17.3339 17.1405 17.1225L17.1452 17.1178C17.1452 17.1178 17.1452 17.1178 17.1452 17.1131C17.4834 16.6481 17.8403 16.2067 18.216 15.8074C18.4086 15.6337 18.6012 15.4693 18.789 15.3143C18.8454 15.2673 18.9018 15.225 18.9534 15.1781C19.0943 15.0654 19.2305 14.9573 19.3667 14.8587C19.4231 14.8164 19.4795 14.7742 19.5358 14.7319C19.6814 14.6286 19.8223 14.5252 19.9632 14.4313C20.0055 14.4031 20.0477 14.375 20.09 14.3468C20.4611 14.1025 20.818 13.8912 21.1609 13.708C21.2313 13.6704 21.3018 13.6376 21.3675 13.6047C21.4661 13.5577 21.5648 13.5061 21.6587 13.4591C21.7761 13.4027 21.8935 13.3511 22.011 13.3041C22.2317 13.2102 22.4477 13.1256 22.645 13.0552L20.6254 19.2313L25.726 15.1029C25.9233 16.2536 25.9937 17.8881 25.5804 19.9546Z" fill="black"/>
<path d="M19.5828 15.9389C19.4372 16.0235 16.0462 18.1135 15.8301 22.3311C15.816 22.5894 16.0133 22.8055 16.2716 22.8196C16.281 22.8196 16.2857 22.8196 16.2951 22.8196C16.5393 22.8196 16.746 22.627 16.7601 22.3781C16.9479 18.6677 20.0289 16.7562 20.0618 16.7374C20.2826 16.6059 20.353 16.3194 20.2215 16.0986C20.09 15.8779 19.8035 15.8074 19.5828 15.9389Z" fill="black"/>
</g>
<defs>
<clipPath id="clip0">
<rect width="20.8157" height="24" fill="white" transform="translate(6 4)"/>
</clipPath>
</defs>
</svg>
