<svg width="32" height="32" viewBox="0 0 32 32" fill="none" xmlns="http://www.w3.org/2000/svg">
<path d="M8.48126 11.45C8.74015 11.45 8.95001 11.2401 8.95001 10.9812C8.95001 10.7224 8.74015 10.5125 8.48126 10.5125C8.22238 10.5125 8.01251 10.7224 8.01251 10.9812C8.01251 11.2401 8.22238 11.45 8.48126 11.45Z" fill="black"/>
<path d="M11.4875 11.45C11.7464 11.45 11.9562 11.2401 11.9562 10.9812C11.9562 10.7224 11.7464 10.5125 11.4875 10.5125C11.2286 10.5125 11.0187 10.7224 11.0187 10.9812C11.0187 11.2401 11.2286 11.45 11.4875 11.45Z" fill="black"/>
<path d="M9.98126 13.4187C10.2401 13.4187 10.45 13.2089 10.45 12.95C10.45 12.6911 10.2401 12.4812 9.98126 12.4812C9.72238 12.4812 9.51251 12.6911 9.51251 12.95C9.51251 13.2089 9.72238 13.4187 9.98126 13.4187Z" fill="black"/>
<path d="M12.9875 13.4187C13.2464 13.4187 13.4562 13.2089 13.4562 12.95C13.4562 12.6911 13.2464 12.4812 12.9875 12.4812C12.7286 12.4812 12.5187 12.6911 12.5187 12.95C12.5187 13.2089 12.7286 13.4187 12.9875 13.4187Z" fill="black"/>
<path d="M3.9375 13.4187C4.19638 13.4187 4.40625 13.2089 4.40625 12.95C4.40625 12.6911 4.19638 12.4812 3.9375 12.4812C3.67862 12.4812 3.46875 12.6911 3.46875 12.95C3.46875 13.2089 3.67862 13.4187 3.9375 13.4187Z" fill="black"/>
<path d="M6.97498 13.4187C7.23386 13.4187 7.44373 13.2089 7.44373 12.95C7.44373 12.6911 7.23386 12.4812 6.97498 12.4812C6.71609 12.4812 6.50623 12.6911 6.50623 12.95C6.50623 13.2089 6.71609 13.4187 6.97498 13.4187Z" fill="black"/>
<path d="M9.98126 9.47499C10.2401 9.47499 10.45 9.26512 10.45 9.00624C10.45 8.74736 10.2401 8.53749 9.98126 8.53749C9.72238 8.53749 9.51251 8.74736 9.51251 9.00624C9.51251 9.26512 9.72238 9.47499 9.98126 9.47499Z" fill="black"/>
<path d="M6.97498 9.47499C7.23386 9.47499 7.44373 9.26512 7.44373 9.00624C7.44373 8.74736 7.23386 8.53749 6.97498 8.53749C6.71609 8.53749 6.50623 8.74736 6.50623 9.00624C6.50623 9.26512 6.71609 9.47499 6.97498 9.47499Z" fill="black"/>
<path d="M5.50623 11.45C5.76511 11.45 5.97497 11.2401 5.97497 10.9812C5.97497 10.7224 5.76511 10.5125 5.50623 10.5125C5.24734 10.5125 5.03748 10.7224 5.03748 10.9812C5.03748 11.2401 5.24734 11.45 5.50623 11.45Z" fill="black"/>
<path d="M30.525 14.0188H26.0563C25.7938 14.0188 25.5875 14.2312 25.5875 14.4875C25.5875 14.75 25.8 14.9563 26.0563 14.9563H30.525C30.8188 14.9563 31.0563 15.1938 31.0563 15.4875V15.6438C31.0563 15.9062 30.8688 16.125 30.6125 16.1687L16.4188 18.5312C16.1938 18.5688 16.025 18.7625 16.025 18.9937V21.5C16.025 23.45 14.4375 25.0375 12.4875 25.0375H4.46875C2.51875 25.0375 0.93125 23.45 0.93125 21.5V14.9563H23.7438C24.0063 14.9563 24.2125 14.7438 24.2125 14.4875C24.2125 14.225 24 14.0188 23.7438 14.0188H16.8063C16.5375 13.375 15.8375 11.8063 14.7438 10.2125C12.8563 7.45625 10.6875 6 8.48125 6C6.275 6 4.1 7.45625 2.20625 10.2125C0.8125 12.2375 0.05625 14.2375 0.025 14.3188V14.325C0.01875 14.3375 0.01875 14.35 0.0125 14.3625C0.0125 14.3688 0.0125 14.3687 0.00625 14.375C0 14.3875 0 14.4 0 14.4187C0 14.425 0 14.425 0 14.4312C0 14.45 0 14.4688 0 14.4812V21.5C0 23.9688 2.00625 25.975 4.475 25.975H12.4938C14.9625 25.975 16.9688 23.9688 16.9688 21.5V19.3938L30.7688 17.0938C31.4813 16.975 32 16.3625 32 15.6438V15.4875C31.9938 14.675 31.3313 14.0188 30.525 14.0188ZM8.48125 6.9375C12.3125 6.9375 14.9688 12.1687 15.7938 14.0125H1.16875C1.9875 12.1687 4.64375 6.9375 8.48125 6.9375Z" fill="black"/>
</svg>
